<?xml version="1.0" standalone="no"?>
<!DOCTYPE svg PUBLIC "-//W3C//DTD SVG 20010904//EN"
 "http://www.w3.org/TR/2001/REC-SVG-20010904/DTD/svg10.dtd">
<svg version="1.0" xmlns="http://www.w3.org/2000/svg"
 width="638.000000pt" height="425.000000pt" viewBox="0 0 638.000000 425.000000"
 preserveAspectRatio="xMidYMid meet">

<g transform="translate(0.000000,425.000000) scale(0.100000,-0.100000)"
fill="#000000" stroke="none">
<path d="M3965 3413 c4 -21 8 -38 8 -39 1 0 21 -7 44 -16 l43 -16 20 28 c11
15 20 31 20 35 0 9 -58 31 -104 39 l-38 7 7 -38z"/>
<path d="M5362 3378 l-20 -32 24 -29 c82 -97 2 -249 -123 -233 -22 3 -46 7
-52 8 -6 2 -21 -12 -32 -30 l-21 -32 36 -15 c19 -8 59 -15 88 -15 136 1 242
119 224 250 -7 50 -49 125 -82 147 -20 13 -23 11 -42 -19z"/>
<path d="M1920 3255 l0 -33 63 -6 c34 -3 249 -8 477 -11 228 -3 485 -7 570
-10 85 -3 278 -7 428 -11 l272 -6 0 41 0 41 -82 0 c-46 0 -333 4 -638 10 -305
5 -675 12 -822 14 l-268 5 0 -34z m660 5 c0 -6 -100 -10 -281 -10 -184 0 -278
3 -274 10 4 6 108 10 281 10 176 0 274 -4 274 -10z m440 -30 c0 -5 -4 -10 -10
-10 -5 0 -10 5 -10 10 0 6 5 10 10 10 6 0 10 -4 10 -10z"/>
<path d="M3814 3236 c-3 -8 -4 -23 -2 -33 3 -16 20 -19 147 -26 79 -4 146 -6
147 -4 2 2 5 19 6 38 l3 34 -148 3 c-122 2 -148 0 -153 -12z"/>
<path d="M4200 3227 c0 -14 -3 -32 -6 -41 -5 -14 6 -16 85 -16 l91 0 0 35 0
35 -69 0 c-38 0 -76 3 -85 6 -12 5 -16 0 -16 -19z"/>
<path d="M4460 3208 c0 -32 3 -36 31 -42 17 -3 66 -6 108 -6 54 0 83 -5 99
-16 22 -15 24 -15 37 2 42 56 -7 82 -166 91 l-109 6 0 -35z"/>
<path d="M4773 3062 l-31 -32 -4 -484 c-2 -267 -6 -487 -9 -491 -4 -3 -79 19
-166 50 l-159 56 25 52 c50 100 29 219 -52 305 -28 29 -36 32 -94 32 -57 0
-64 2 -80 26 -10 16 -16 41 -14 60 1 20 -2 34 -8 34 -6 0 -11 10 -11 21 0 19
-4 21 -31 15 -18 -3 -37 -1 -44 4 -7 6 -20 8 -29 4 -20 -8 -21 -50 -2 -61 8
-4 17 -29 19 -55 7 -60 12 -68 43 -68 24 0 24 -1 -11 -31 -19 -17 -35 -41 -35
-53 0 -38 -20 -95 -43 -121 l-22 -25 -225 81 c-241 86 -333 119 -336 119 -1 0
-5 -21 -9 -47 -3 -27 -20 -72 -36 -102 -17 -29 -29 -54 -27 -56 2 -1 194 -72
428 -157 l425 -155 12 -59 c6 -32 17 -117 23 -189 6 -71 13 -137 15 -145 3
-10 -13 -24 -48 -42 -43 -23 -65 -28 -126 -28 l-73 0 7 -27 c4 -16 13 -59 19
-98 l12 -70 140 -3 139 -3 0 -277 c0 -292 2 -309 47 -333 14 -7 168 -14 467
-19 245 -5 447 -9 449 -9 2 -1 2 -46 0 -101 -3 -89 -1 -101 17 -114 26 -20 50
-20 69 0 12 12 16 38 16 113 l0 98 107 6 c58 4 143 7 187 7 93 0 134 18 163
72 16 30 18 86 21 679 4 674 -8 1130 -31 1177 -25 51 -52 61 -212 76 -174 17
-433 35 -655 44 l-155 7 -2 40 c-6 105 -26 291 -32 300 -3 6 -20 -4 -38 -23z
m632 -467 c339 -22 350 -23 379 -52 16 -15 28 -42 32 -70 8 -53 -10 -697 -32
-1128 -16 -326 -19 -340 -66 -366 -14 -8 -81 -14 -165 -17 l-143 -5 0 40 c0
22 -3 87 -6 145 l-7 105 39 6 c110 19 231 114 280 220 26 55 29 73 29 162 0
89 -3 107 -29 162 -37 81 -122 163 -213 205 -60 28 -78 32 -153 32 -74 0 -93
-4 -152 -31 -125 -59 -205 -161 -228 -294 -37 -210 124 -432 331 -456 l51 -6
-6 -56 c-3 -31 -8 -96 -12 -145 l-6 -89 -317 7 c-174 3 -361 9 -416 13 -91 6
-102 9 -127 34 -28 27 -28 28 -28 168 l0 141 134 0 c94 0 144 4 168 15 53 21
95 76 104 132 5 26 8 297 9 602 l0 554 160 -7 c88 -4 264 -13 390 -21z m-1017
-327 c4 -74 2 -88 -11 -88 -22 0 -28 40 -21 131 9 105 26 82 32 -43z m-232
-15 c-2 -2 -15 1 -29 8 -24 11 -24 12 -8 40 l16 28 13 -36 c6 -20 10 -38 8
-40z m1318 -303 c73 -28 147 -99 183 -175 23 -50 27 -74 28 -140 0 -71 -4 -88
-33 -148 -61 -123 -168 -183 -311 -175 -242 15 -387 264 -280 485 26 54 113
133 170 155 64 24 175 23 243 -2z m-1046 -127 c76 -157 107 -226 104 -236 -1
-4 4 -23 12 -42 l15 -35 -108 0 -109 0 -5 26 c-2 15 -2 112 1 215 4 151 8 189
19 189 7 0 39 -52 71 -117z m198 18 l99 -37 3 -107 3 -107 -33 -34 c-18 -20
-45 -38 -60 -42 -24 -5 -28 -3 -28 14 0 26 -20 72 -32 72 -4 0 -8 10 -8 23 0
12 -18 76 -40 141 -22 66 -40 120 -40 122 0 5 39 -8 136 -45z"/>
<path d="M1430 2616 l0 -46 50 0 c28 0 50 2 50 4 0 2 -22 23 -50 46 l-50 42 0
-46z"/>
<path d="M3020 2543 c0 -7 59 -51 133 -98 l27 -17 21 47 c11 26 18 49 16 52
-6 6 -129 22 -169 23 -16 0 -28 -3 -28 -7z"/>
<path d="M1266 2025 c-11 -8 -28 -15 -38 -15 -9 0 -31 -14 -48 -30 -29 -29
-30 -32 -19 -65 15 -42 53 -58 42 -18 -4 17 -2 24 4 20 6 -4 13 2 16 12 3 11
17 22 35 26 38 8 55 27 50 56 -4 28 -18 32 -42 14z"/>
<path d="M1430 1880 l0 -110 -27 -2 c-34 -2 -40 -1 -133 12 -182 27 -171 28
-223 -30 -50 -56 -101 -139 -111 -182 -5 -23 -2 -30 25 -44 17 -8 35 -12 38
-7 4 4 29 36 56 71 l49 63 135 -1 c75 -1 148 1 164 5 l27 7 0 -61 c0 -98 43
-171 124 -213 38 -20 62 -22 311 -29 149 -4 272 -5 274 -4 3 3 -18 102 -35
166 -4 14 -37 17 -245 23 -263 7 -286 12 -314 66 -18 34 -20 111 -4 127 9 9 6
20 -11 43 -17 23 -20 34 -11 43 6 6 11 45 11 89 l0 78 -50 0 -50 0 0 -110z"/>
<path d="M2440 1533 c0 -5 24 -28 54 -51 30 -24 73 -66 96 -93 l41 -49 111 0
111 0 -7 -77 c-4 -43 -13 -121 -21 -173 -8 -52 -17 -129 -20 -172 -8 -90 -5
-88 -137 -88 -102 0 -121 -12 -133 -79 -13 -76 -60 -71 675 -71 586 0 659 2
671 16 10 13 10 27 0 77 -18 89 -24 93 -135 89 l-93 -3 -18 98 c-9 54 -28 158
-41 231 -13 73 -24 135 -24 138 0 2 18 4 40 4 35 0 40 3 46 28 3 15 14 56 24
92 11 35 18 65 17 66 -1 2 -182 5 -402 8 -220 4 -502 9 -627 12 -126 3 -228 2
-228 -3z"/>
<path d="M1013 1274 c-11 -11 -31 -46 -43 -79 -35 -95 -130 -446 -124 -456 3
-5 13 -9 22 -9 13 0 33 37 75 138 31 76 77 181 101 233 l45 94 1 -201 c0 -237
4 -266 34 -262 19 3 22 11 28 108 4 58 19 179 32 270 13 91 23 166 22 167 0 1
-39 5 -86 8 -75 6 -88 5 -107 -11z"/>
<path d="M1096 678 c-8 -34 4 -39 84 -36 l74 3 -51 28 c-63 34 -98 35 -107 5z"/>
<path d="M825 667 c-15 -21 -14 -22 21 -25 42 -4 48 0 40 25 -8 26 -43 26 -61
0z"/>
<path d="M1840 651 l-275 -6 -197 -133 c-204 -137 -218 -151 -180 -185 17 -16
157 -17 1809 -17 l1790 0 27 21 c14 11 26 27 26 35 0 7 -63 67 -140 133 -97
84 -149 122 -172 126 -138 24 -1971 42 -2688 26z"/>
</g>
</svg>
