<?xml version="1.0" standalone="no"?>
<!DOCTYPE svg PUBLIC "-//W3C//DTD SVG 20010904//EN"
 "http://www.w3.org/TR/2001/REC-SVG-20010904/DTD/svg10.dtd">
<svg version="1.0" xmlns="http://www.w3.org/2000/svg"
 width="96.000000pt" height="96.000000pt" viewBox="0 0 96.000000 96.000000"
 preserveAspectRatio="xMidYMid meet">

<g transform="translate(0.000000,96.000000) scale(0.100000,-0.100000)"
fill="#000000" stroke="none">
<path d="M255 951 c-117 -16 -190 -66 -227 -159 -21 -54 -22 -72 -23 -307 0
-278 6 -316 66 -388 44 -54 96 -77 202 -89 130 -15 448 -4 508 17 70 24 124
76 150 143 22 54 23 71 24 307 0 282 -6 318 -71 393 -61 71 -112 84 -359 87
-116 2 -237 0 -270 -4z m521 -102 c37 -19 54 -36 74 -74 25 -49 25 -53 25
-280 0 -126 -4 -247 -8 -268 -10 -46 -60 -105 -107 -125 -45 -19 -373 -28
-483 -14 -95 12 -138 39 -170 102 -21 43 -22 56 -22 290 0 236 1 247 23 292
47 94 102 108 414 104 197 -2 209 -4 254 -27z"/>
<path d="M694 765 c-20 -30 -11 -62 21 -77 52 -23 99 46 59 86 -23 24 -61 20
-80 -9z"/>
<path d="M380 704 c-88 -38 -144 -125 -144 -224 0 -139 102 -240 241 -240 167
1 283 163 228 319 -35 101 -122 161 -229 161 -34 -1 -77 -8 -96 -16z m180 -85
c105 -59 105 -219 0 -278 -107 -60 -240 18 -240 139 0 121 133 199 240 139z"/>
</g>
</svg>
